<?xml version="1.0" encoding="UTF-8"?><svg id="a" xmlns="http://www.w3.org/2000/svg" viewBox="0 0 108.48 108.48"><defs><style>.b{fill:#3b4ca4;}.b,.c,.d,.e,.f,.g,.h,.i,.j,.k,.l,.m,.n,.o{stroke-width:0px;}.c{fill:#c4c4c4;}.d{fill:#46a9e5;}.e{fill:#88c8ee;}.f{fill:#b4dcf4;}.g{fill:#c0e2f6;}.h{fill:#6e6e6e;}.i{fill:#d9edf9;}.j{fill:#8fcbef;}.k{fill:#6c79bb;}.l{fill:#a7a7a7;}.m{fill:#8a8a8a;}.n{fill:#fefefe;}.o{fill:#0a1f8e;}</style></defs><path class="n" d="M54.48.02C72.15.02,89.83.03,107.5,0c.82,0,.98.16.98.98-.03,35.5-.03,71.01,0,106.51,0,.82-.16.98-.98.98-17.75-.03-35.51-.02-53.26-.02.02-.73.69-.82,1.13-1.08,5.31-3.1,10.65-6.17,15.97-9.25,2.01-1.16,4.01-2.32,6.02-3.48.2-.11.4-.23.6-.35,6.98-4.05,13.98-8.08,20.96-12.13.64-.37,1.43-.58,1.73-1.39.04-6.59.02-13.18.01-19.77,0-11.1.04-22.21-.03-33.3-.09-.44-.45-.63-.8-.83-7.35-4.26-14.7-8.49-22.06-12.72-.24-.15-.47-.33-.73-.46-7.53-4.31-15.05-8.63-22.54-13.02-.08-.09-.14-.19-.16-.31,0-.13.04-.23.13-.32Z"/><path class="n" d="M54.48.02c0,.07,0,.15,0,.22-3.16,1.85-6.34,3.68-9.51,5.51-4.59,2.65-9.16,5.33-13.79,7.93-.15.08-.31.16-.46.25-7.15,4.13-14.3,8.26-21.44,12.41-.67.39-1.65.55-1.73,1.62-.01,8.72,0,17.43,0,26.14,0,.15,0,.31,0,.46.01,8.75-.05,17.49.04,26.23.14.53.62.69,1.02.93,7.36,4.3,14.77,8.51,22.13,12.8.15.09.29.18.44.27,6.15,3.48,12.24,7.07,18.37,10.59,1.52.87,3.1,1.64,4.48,2.74.05.12.03.23-.05.33-17.67,0-35.35,0-53.02.02-.82,0-.98-.16-.98-.98C.03,71.99.03,36.49,0,.98,0,.16.16,0,.98,0c17.83.03,35.66.02,53.5.02Z"/><path class="b" d="M54,108.46c0-.08,0-.16,0-.24-.25-.38-.38-.79-.38-1.24,0-8.33-.08-16.67.04-25,.02-.13.05-.27.1-.4.57-.8,1.16-.22,1.67.06,2.14,1.16,4.23,2.41,6.34,3.63,4.91,2.83,9.8,5.68,14.72,8.49.38.22.79.4,1.08.74.06.12.05.23-.04.34-4.49,2.62-8.98,5.22-13.46,7.85-3.28,1.93-6.64,3.69-9.83,5.77h-.24Z"/><path class="b" d="M77.53,94.83c0-.1-.02-.21-.03-.31-.35-.39-.37-.87-.37-1.35,0-8.37-.06-16.74.03-25.1-.01-.16-.01-.31,0-.47-.04-8.76-.07-17.53,0-26.29.01-.14.04-.29.07-.42.03-.13.08-.25.15-.37,1.57-1.24,3.38-2.1,5.11-3.09,5.18-3,10.37-5.99,15.56-8.98.48-.28.97-.55,1.47-.8.45-.22.85-.26,1.05.34.14.51.09,1.03.09,1.55,0,7.17,0,14.34,0,21.52,0,.96.02,1.91.24,2.84-.18.84-.67.31-.96.16-1.6-.82-3.14-1.74-4.7-2.65-5.28-3.07-10.58-6.12-15.88-9.17-1.2-.69-1.29-.63-1.29.76,0,7.51,0,15.02,0,22.53,0,1.44.03,1.47,1.25.78,6.48-3.71,12.94-7.48,19.43-11.17.48-.28.98-.81,1.61-.24.4.57.29,1.23.3,1.86,0,7.31.01,14.63-.01,21.94,0,.7.35,1.43-.1,2.1-.68.55-1.22,0-1.73-.3-4.25-2.46-8.53-4.89-12.77-7.37-2.61-1.53-5.25-3.01-7.96-4.59,0,8.26,0,16.36,0,24.47,0,.52.02,1.04-.1,1.55-.15.1-.31.19-.46.29Z"/><path class="m" d="M30.98,13.49c7.36-4.25,14.71-8.51,22.07-12.76.44-.25.85-.62,1.43-.49.03.07.05.13.06.2.16.71.08,1.43.08,2.15,0,7.38,0,14.76,0,22.13,0,.64.04,1.28-.07,1.91-.02.13-.07.26-.13.38-.52.55-.96.08-1.38-.15-4.04-2.27-8.05-4.6-12.05-6.93-3.07-1.79-6.19-3.51-9.22-5.36-.37-.22-1.11-.3-.78-1.08Z"/><path class="m" d="M77.25,13.52c.18.12.37.24.55.36.08.39.1.79.1,1.19-.02,7.8,0,15.61,0,23.41,0,.72.02,1.44-.35,2.09h-.04c-.42.3-.76.04-1.1-.16-7.17-4.16-14.34-8.31-21.53-12.43-.24-.14-.47-.29-.65-.51-.08-.11-.08-.22,0-.33l.03-.04c.19-.36.46-.63.82-.84,7.22-4.15,14.44-8.3,21.63-12.5.17-.1.37-.16.55-.24Z"/><path class="h" d="M77.55,40.58c-.01-8.61-.03-17.22-.04-25.83,0-.32-.02-.65.29-.86,5.29,3.03,10.58,6.06,15.86,9.1,2.38,1.37,4.74,2.78,7.11,4.16.09.43-.21.42-.49.44-3.36,1.9-6.73,3.8-10.09,5.71-4.22,2.41-8.44,4.85-12.65,7.28Z"/><path class="h" d="M77.25,13.52c-.82,1.02-2.03,1.45-3.1,2.08-6.62,3.85-13.26,7.67-19.89,11.5,0-8.56-.01-17.12-.02-25.69,0-.35-.06-.73.3-.97,5.67,3.25,11.35,6.51,17.02,9.76,1.9,1.09,3.79,2.21,5.69,3.31Z"/><path class="o" d="M77.99,94.54c-.36-.26-.25-.65-.25-.99,0-8.35,0-16.69,0-25.04,0-.12.03-.24.07-.52,2.22,1.27,4.38,2.51,6.54,3.75,5.24,3.02,10.48,6.05,15.73,9.08.06.04.16.03.23.04.27.05.61.03.48.48-4.49,2.62-8.98,5.26-13.48,7.87-3.09,1.79-6.21,3.55-9.31,5.33Z"/><path class="b" d="M100.78,81.35c-.16-.16-.32-.32-.48-.48.47-.77-.03-1.55-.03-2.32.05-7.43.03-14.86.03-22.3,0-.52.07-1.04-.24-1.51.07-.41.44-.37.71-.48-.79-2.32-.44-4.71-.46-7.08-.04-6.53-.02-13.06-.02-19.59.16-.15.33-.29.49-.44.45.28.22.73.22,1.09.01,17.34.01,34.69,0,52.03,0,.36.23.8-.23,1.08Z"/><path class="c" d="M7.24,27.35c1.34-1.21,3-1.92,4.53-2.82,6.18-3.63,12.39-7.18,18.6-10.76.1-.06.23-.07.34-.1.35.47.41,1.03.41,1.59,0,8.01,0,16.03,0,24.04,0,.36,0,.72-.1,1.06-.04.13-.1.25-.18.36-.41.33-.76.04-1.09-.16-7.19-4.16-14.39-8.32-21.59-12.47-.24-.14-.48-.28-.68-.49-.08-.09-.15-.18-.23-.27Z"/><path class="j" d="M54.04,81.36c-.03.06-.05.13-.07.19-.83.9-1.95,1.37-2.98,1.95-6.22,3.56-12.42,7.17-18.62,10.76-.45.26-.9.52-1.38.72-.09-.07-.18-.14-.26-.21-.28-.41-.38-.87-.38-1.36,0-8.21-.04-16.43.02-24.64,0-.12.03-.24.04-.35.02-.13.07-.26.13-.39.57-.64,1.1-.17,1.59.12,4.97,2.86,9.92,5.75,14.9,8.59,1.9,1.08,3.77,2.23,5.69,3.28.49.27.99.52,1.33.99.06.12.05.23-.01.34Z"/><path class="l" d="M30.75,40.78c-.01-9.03-.03-18.07-.04-27.1.09-.06.18-.12.27-.18.55.96,1.6,1.25,2.45,1.75,6.83,3.98,13.7,7.91,20.56,11.85.07.04.15.03.23.05.01.07.02.15.02.22-.05.1-.13.2-.22.27-6.14,3.66-12.36,7.17-18.54,10.75-1.42.82-2.81,1.69-4.26,2.45-.11.04-.23.05-.34.05-.05-.04-.09-.07-.14-.11Z"/><path class="d" d="M30.71,67.94c0,8.95.01,17.89.02,26.84-5.7-3.27-11.4-6.53-17.09-9.81-2.07-1.19-4.12-2.42-6.17-3.63-.11-.1-.11-.2-.03-.31,2.47-1.69,5.15-3.05,7.73-4.55,4.55-2.66,9.11-5.3,13.69-7.9.57-.32,1.09-.84,1.85-.64Z"/><path class="j" d="M30.71,67.94c-4.18,2.38-8.36,4.78-12.55,7.15-3.57,2.01-7.02,4.22-10.69,6.05-.24-.41-.12-.86-.12-1.29,0-8.02,0-16.03-.01-24.05,0-.43.08-.88-.08-1.3-.02-.08-.02-.16,0-.24.13-.15.3-.18.48-.15,4.18,2.32,8.29,4.77,12.43,7.14,3.08,1.76,6.14,3.55,9.22,5.31.48.27,1,.51,1.33.99.05.11.06.23.03.34l-.04.05Z"/><path class="d" d="M30.99,94.98c.46-.88,1.42-1.08,2.18-1.52,6.45-3.78,12.93-7.51,19.4-11.24.44-.26.93-.45,1.39-.67.01,7.01.03,14.03.04,21.04,0,1.87,0,3.75,0,5.62-5.7-3.27-11.41-6.54-17.11-9.82-1.97-1.13-3.93-2.27-5.9-3.41Z"/><path class="g" d="M7.7,54.25c-.15,0-.3,0-.45,0,0-8.97,0-17.94,0-26.91.07.01.15.02.22.03.3.45.38.96.38,1.49,0,8.31.02,16.63-.01,24.94,0,.16-.04.31-.13.44Z"/><path class="e" d="M7.26,54.5c.37.42.2.92.2,1.38.01,8.42.01,16.84.02,25.26,0,.07,0,.14,0,.21-.32-.17-.24-.48-.24-.74,0-8.7.02-17.4.03-26.1Z"/><path class="k" d="M54.04,81.36c-.02-.09-.04-.18-.07-.27-.25-.42-.36-.88-.36-1.37,0-8.15-.03-16.3.01-24.45,0-.16.03-.32.06-.47.03-.15.09-.29.17-.42.09-.12.22-.18.37-.17.49.54.33,1.21.34,1.83.01,7.55,0,15.09,0,22.64,0,.32,0,.64,0,.96-.01.75.27.94.94.54,1.07-.63,2.15-1.22,3.22-1.84,5.73-3.33,11.47-6.64,17.22-9.94.47-.27.92-.68,1.54-.44,0,8.86,0,17.71,0,26.57-2.18-.88-4.11-2.22-6.14-3.37-5.35-3.06-10.67-6.16-16.01-9.23-.41-.23-.8-.54-1.31-.55Z"/><path class="l" d="M54.27,54.28c-.07-.01-.15-.03-.22-.04-.06-.05-.12-.11-.18-.16-.3-.51-.25-1.08-.25-1.63,0-7.74,0-15.48,0-23.22,0-.64,0-1.28.38-1.84.09,0,.17,0,.26-.01,2.94,1.44,5.68,3.21,8.52,4.83,4.75,2.7,9.45,5.47,14.18,8.2.17.1.37.13.56.19,0,.08,0,.15-.03.22-.17.38-.47.64-.82.84-7.37,4.19-14.67,8.51-22.05,12.68-.12.03-.23.01-.34-.04Z"/><path class="b" d="M54.27,54.28c.07-.03.13-.04.21-.04,1.84.61,3.38,1.77,5.03,2.72,5.6,3.23,11.21,6.45,16.81,9.69.45.26.9.52,1.17.99,0,.11,0,.21,0,.32-4.04,2.31-8.09,4.62-12.12,6.94-3.38,1.94-6.77,3.89-10.14,5.85-.76.44-1.01.32-1-.6.03-8.62.03-17.24.04-25.86Z"/><path class="k" d="M77.49,67.63c-4.42-2.54-8.85-5.07-13.26-7.61-2.83-1.63-5.66-3.26-8.48-4.91-.44-.26-.85-.58-1.27-.87,2.11-1.58,4.49-2.72,6.75-4.05,5.39-3.18,10.83-6.26,16.26-9.38,0,8.94,0,17.89,0,26.83Z"/><path class="o" d="M100.77,54.26c-.24.16-.47.32-.71.48-4.98,2.86-9.96,5.71-14.93,8.58-2.18,1.25-4.35,2.52-6.51,3.8-.67.4-.89.24-.89-.53.01-8.23,0-16.47,0-24.7,0-.59,0-.95.78-.5,5.62,3.27,11.26,6.5,16.88,9.75,1.8,1.04,3.58,2.08,5.37,3.13Z"/><path class="f" d="M7.7,54.25c0-.08,0-.16,0-.24.66-1.11,1.9-1.41,2.91-2,5.49-3.18,10.98-6.37,16.49-9.52,1.1-.63,2.12-1.43,3.4-1.7.08,0,.16-.01.24-.02,0,0-.02.03-.02.03.41.46.39,1.03.39,1.59,0,7.9,0,15.81,0,23.71,0,.48,0,.96-.23,1.4-.05.06-.11.12-.16.17-7.39-4.26-14.78-8.52-22.17-12.79-.31-.18-.57-.42-.85-.64Z"/><path class="i" d="M30.5,40.79c-2.7,1.59-5.4,3.21-8.11,4.78-4.89,2.83-9.79,5.63-14.69,8.44-.37-.31-.24-.74-.24-1.12,0-8.5,0-17,0-25.51,5.39,3.11,10.78,6.2,16.15,9.33,2.3,1.34,4.71,2.52,6.88,4.08Z"/><path class="f" d="M53.97,54.47c0,8.87,0,17.75,0,26.62-5.99-3.47-11.97-6.97-18-10.38-1.72-.97-3.32-2.18-5.23-2.82-.01-.07-.02-.14-.03-.21,0,0,.02-.03.02-.03.19-.38.54-.56.89-.77,6.87-3.96,13.76-7.91,20.61-11.91.52-.3,1-.84,1.73-.51Z"/><path class="i" d="M53.97,54.47c-2.15.86-4.03,2.24-6.03,3.36-5.76,3.23-11.38,6.69-17.19,9.82,0-8.95-.01-17.9-.02-26.85.08,0,.16,0,.24,0,1.27.3,2.29,1.1,3.39,1.74,6.15,3.57,12.33,7.1,18.48,10.67.45.26.91.51,1.14,1.02,0,0,.07,0,.07,0-.02.08-.05.16-.07.24Z"/><path class="c" d="M53.98,54.24c-7.35-4.24-14.71-8.48-22.05-12.73-.34-.2-.64-.47-.96-.7,2.23-1.6,4.68-2.83,7.04-4.21,5.31-3.11,10.65-6.15,15.98-9.23,0,8.95,0,17.91-.01,26.86Z"/></svg>